<svg width="110" height="74" viewBox="0 0 110 74" fill="none" xmlns="http://www.w3.org/2000/svg">
<g clip-path="url(#clip0_159_52)">
<path d="M13.5923 44.4547C11.3362 44.6306 9.07829 44.772 6.81832 44.8714C5.12116 45.003 3.4282 45.1084 1.73794 44.814C1.17242 44.7068 0.533254 44.6598 0.00276244 44.4133C-0.00741629 44.3805 0.0114443 44.3457 0.0443755 44.3356C0.608995 44.165 1.17332 44.059 1.73794 43.9763C3.4282 43.6819 5.12116 43.7873 6.81832 43.9185C9.07829 44.018 11.3362 44.1594 13.5923 44.3353C13.6662 44.3392 13.6602 44.4502 13.5923 44.4547ZM23.7081 18.9116L31.4101 25.0877C31.5209 25.1764 31.6535 25.2196 31.7855 25.2196C31.9604 25.2196 32.1337 25.144 32.252 24.9978C32.4594 24.7418 32.4193 24.367 32.1618 24.1607L24.4598 17.9846C24.2024 17.778 23.8255 17.8185 23.618 18.0742C23.4105 18.3302 23.4507 18.7053 23.7081 18.9116ZM109.849 44.193C109.351 44.0424 108.822 43.9301 108.138 43.8298C106.464 43.5384 104.83 43.6304 103.025 43.7703C100.845 43.8658 98.5649 44.0064 96.2477 44.1868C96.1384 44.1939 96.0555 44.2817 96.0552 44.3919C96.0546 44.5053 96.1375 44.5961 96.2465 44.6026C98.5723 44.7839 100.853 44.9244 103.02 45.0191C103.959 45.092 104.85 45.1519 105.725 45.1519C106.536 45.1519 107.333 45.1003 108.14 44.9595C108.28 44.9331 108.424 44.9104 108.57 44.8872C109.024 44.8158 109.494 44.7413 109.911 44.5475L109.972 44.5193L109.991 44.455C110.024 44.3442 109.961 44.226 109.849 44.1921L109.849 44.193ZM78.0649 25.2196C78.1969 25.2196 78.3299 25.1764 78.4406 25.0877L86.1426 18.9119C86.3998 18.7056 86.4402 18.3305 86.2327 18.0748C86.0256 17.8185 85.6481 17.7789 85.3909 17.9849L77.6889 24.161C77.4317 24.3673 77.3913 24.7421 77.5988 24.9981C77.7173 25.144 77.8901 25.2196 78.0649 25.2196ZM54.8658 19.6832C54.8676 19.7579 54.9835 19.7526 54.9855 19.6832C55.1625 16.4622 55.3047 13.2394 55.4047 10.0158C55.5373 7.59618 55.6418 5.17985 55.3469 2.76531C55.2637 1.95977 55.1574 1.15422 54.9855 0.348384C54.9808 0.325462 54.9628 0.306708 54.9382 0.30135C54.9053 0.294503 54.8727 0.315341 54.8658 0.348384C54.6943 1.15393 54.5877 1.95947 54.5045 2.76531C54.2096 5.17985 54.314 7.59648 54.4467 10.0158C54.5467 13.2394 54.6889 16.4619 54.8658 19.6832ZM54.9269 52.7843C59.8704 52.7843 64.121 49.4442 65.2631 44.6619L65.299 44.5118L63.8324 44.2213L63.7985 44.36C62.7438 48.6854 58.7328 51.5953 54.2578 51.2723C53.2785 51.2035 52.3247 50.9758 51.4227 50.5963L51.291 50.5406L51.2293 50.6692C51.1545 50.8249 51.0796 50.9711 51.0066 51.113L50.9647 51.1946C50.8713 51.3744 50.7808 51.5486 50.6901 51.7376L50.6231 51.8775L50.7665 51.9385C52.0858 52.4997 53.4857 52.7843 54.9269 52.7843ZM54.9373 55.0809C55.2565 55.0809 55.5771 55.0693 55.8989 55.0461C59.2525 54.8002 62.3433 53.2662 64.6012 50.7272L64.7083 50.6064L64.5784 50.5096C64.4563 50.4185 64.3368 50.3325 64.2153 50.2447L64.1847 50.223C64.0057 50.0926 63.8237 49.9589 63.624 49.8077L63.5144 49.7246L63.4222 49.8264C61.2533 52.2207 58.1565 53.5937 54.9263 53.5937C50.9907 53.5937 47.3773 51.6141 45.2601 48.2984L45.1873 48.1841L43.8485 48.8607L43.935 48.9986C46.3208 52.8084 50.4728 55.0812 54.9367 55.0809H54.9373ZM70.6437 38.0794C70.9296 39.4258 71.0664 40.8077 71.0554 42.1922C71.0242 46.3873 69.5603 50.5198 66.9462 53.8411C70.7299 49.5663 72.4481 43.5554 71.5272 37.9183C71.4212 37.3224 70.53 37.4906 70.6437 38.0794ZM74.1317 39.878C74.5733 40.7878 74.7314 41.885 74.5218 42.9689C75.02 41.9547 75.2412 40.6773 74.9496 39.4854C74.6811 38.9552 73.8815 39.3392 74.1317 39.878ZM17.3659 45.0477C17.2401 44.5502 17.4973 44.0361 17.9718 43.8352C21.6772 42.2673 24.5356 40.8294 26.9674 39.3097C27.353 39.0603 27.7542 38.7995 28.158 38.5372C31.8631 36.1304 35.6945 33.6415 39.8561 31.9405C41.485 31.2308 43.1869 30.6232 44.8945 30.143C44.9137 30.1365 44.9335 30.1302 44.9532 30.1246C46.9854 29.5512 49.087 29.1375 51.1994 28.8951C54.0293 28.5721 56.8716 28.5576 59.6486 28.8526C61.8319 29.0848 63.9758 29.509 66.0208 30.1133C66.5156 30.2579 66.977 30.4041 67.4284 30.5586C72.3645 32.265 76.7578 34.8587 81.1973 37.5909C84.3509 39.5431 88.073 41.6707 91.9634 43.7444C92.3927 43.9733 92.6064 44.4654 92.4804 44.9328C92.3543 45.4001 91.9182 45.7166 91.4347 45.7041C90.9961 45.6898 90.5689 45.6654 90.1512 45.632C88.1116 46.0038 86.1136 46.5528 84.1955 47.2756C80.6347 48.6175 78.2568 50.1932 76.836 51.1345L76.4522 51.3878C73.9913 52.9983 65.2089 58.265 55.5157 58.4287C55.3592 58.4314 55.2032 58.4326 55.0472 58.4326C46.947 58.4326 39.9219 54.9002 37.2434 53.3588C36.2729 52.8 35.3499 52.2053 34.4575 51.6298C32.0894 50.1036 29.6408 48.525 25.7409 47.2068C23.7695 46.5403 21.7251 46.044 19.6474 45.7207C19.2585 45.7594 18.8681 45.7963 18.4757 45.8315C18.4439 45.8342 18.4125 45.8356 18.3811 45.8356C17.9053 45.8356 17.4835 45.5141 17.3659 45.0477ZM35.2718 50.3813C36.189 50.9725 37.0554 51.5307 37.9934 52.0707C38.2742 52.2323 38.6077 52.4178 38.984 52.6182C40.2728 53.0733 41.5742 53.4716 42.886 53.819C40.0893 50.629 38.373 46.4652 38.1224 42.2161C38.0347 40.786 38.0996 39.3425 38.3236 37.9186C38.3616 37.6748 38.5915 37.5081 38.8364 37.5459C39.09 37.5843 39.2606 37.8302 39.2067 38.0797C38.0254 43.5369 39.4103 49.4171 42.8884 53.8199C43.9416 54.0986 45.0014 54.3433 46.0675 54.5519C43.4501 52.6923 41.4245 50.0158 40.3994 46.8192L40.3563 46.6846L40.4892 46.6346C40.5653 46.6061 40.6416 46.5787 40.7168 46.5522L40.8692 46.4974C41.12 46.4078 41.3643 46.3206 41.6245 46.2363L41.7679 46.1899L41.8134 46.3331C43.198 50.6865 46.5525 53.9131 50.6898 55.233C52.531 55.4164 54.3859 55.5004 56.251 55.4786C57.0384 55.4694 57.8239 55.439 58.608 55.3929C64.4679 53.769 68.7316 48.3383 68.6741 42.0898C68.6628 41.0024 68.525 39.9274 68.2643 38.8933C67.9943 38.9421 67.7269 38.9879 67.4617 39.0323C67.4805 39.104 67.4976 39.1776 67.5147 39.2511L67.3778 39.3172L67.5233 39.2832C67.5904 39.5652 67.6476 39.8578 67.6994 40.1778C67.7206 40.3076 67.7419 40.4409 67.7572 40.5743C67.7718 40.6776 67.7841 40.7878 67.7931 40.8976C67.7991 40.9247 67.8027 40.9664 67.8027 41.008C67.814 41.0985 67.8233 41.2054 67.8293 41.312C67.8356 41.3915 67.8413 41.4704 67.8449 41.5531C67.8742 42.072 67.8688 42.6093 67.8293 43.1472C67.6497 45.5445 66.7965 47.8409 65.361 49.7886L65.2718 49.9095L65.1508 49.8199C64.9987 49.7071 64.8556 49.6029 64.7155 49.5026C64.541 49.3766 64.3751 49.254 64.1976 49.1197L64.0805 49.031L64.1674 48.9131C65.6059 46.9573 66.366 44.6428 66.366 42.2196C66.366 42.0699 66.363 41.9231 66.357 41.7731C66.357 41.7532 66.3576 41.7392 66.3555 41.7249C66.3513 41.5993 66.3429 41.493 66.3345 41.3837C66.3303 41.3164 66.3279 41.2658 66.322 41.2155L66.295 40.9393C66.2893 40.8896 66.2836 40.8387 66.2756 40.7875C66.2597 40.6589 66.2423 40.5362 66.2214 40.4168C66.2007 40.2638 66.1741 40.1189 66.142 39.9739C66.1115 39.8215 66.0795 39.6747 66.0441 39.5312C66.0208 39.4371 65.9992 39.3484 65.9759 39.2627L65.8741 39.277C65.6418 39.31 65.4044 39.3437 65.1619 39.3764C65.1682 39.397 65.1745 39.4214 65.181 39.4455C65.2176 39.5815 65.2541 39.7208 65.2846 39.8602C65.3203 40.0117 65.3508 40.1653 65.3807 40.3189L65.3837 40.3502C65.4089 40.4814 65.4331 40.635 65.4541 40.7913C65.4753 40.9327 65.4906 41.0786 65.5029 41.2215C65.5089 41.2498 65.5124 41.2876 65.5124 41.3292C65.5241 41.4587 65.5328 41.5975 65.5394 41.7398C65.5481 41.8981 65.5514 42.0589 65.5514 42.2193C65.5514 42.6551 65.5265 43.0662 65.4753 43.4762L65.4556 43.6354L63.9865 43.3419L64.0015 43.2065C64.0368 42.885 64.0548 42.553 64.0548 42.2196C64.0548 42.0848 64.0515 41.9529 64.0458 41.8181L64.0431 41.771C64.0368 41.6457 64.0285 41.523 64.0165 41.4004C64.0078 41.2941 63.9961 41.1864 63.9814 41.0819C63.9752 41.0179 63.9698 40.9631 63.9587 40.905C63.947 40.808 63.9318 40.724 63.9165 40.638L63.9051 40.5585C63.8845 40.4612 63.8611 40.3394 63.8288 40.2144C63.7797 39.9885 63.724 39.7759 63.659 39.5654C63.38 39.5973 63.107 39.6277 62.8378 39.655C63.107 40.4773 63.2435 41.3388 63.2435 42.2196C63.2435 45.6246 61.1865 48.6396 58.0029 49.9015L57.8242 49.972L57.7988 49.7824C57.7691 49.5609 57.7395 49.3659 57.7069 49.1709C57.6763 48.9783 57.6464 48.7869 57.6161 48.5687L57.6009 48.4586L57.7027 48.4127C60.1935 47.2946 61.7808 44.8283 61.7463 42.1294C61.7376 41.3941 61.6107 40.6755 61.3685 39.9917L61.0742 39.8158C60.9497 39.828 60.8254 39.8372 60.7021 39.8465L60.5398 39.8587C60.5093 39.8614 60.4788 39.864 60.4482 39.8658C60.7692 40.6068 60.9317 41.3977 60.9317 42.2196C60.9317 43.8882 60.2201 45.493 58.9795 46.6227C57.7224 47.7679 56.0905 48.3172 54.3832 48.1668C51.6826 47.9326 49.416 45.8353 48.9945 43.1806C48.8142 42.044 48.9541 40.9068 49.3986 39.8777C49.2438 39.8673 49.09 39.8569 48.9403 39.8435L48.9154 39.8405L48.5496 39.8131C48.2553 40.5776 48.1062 41.3867 48.1062 42.2196C48.1062 44.1248 48.9226 45.9547 50.3458 47.2395C51.7879 48.5419 53.6542 49.1566 55.6032 48.9688C55.9406 48.9364 56.2675 48.8795 56.5737 48.8003L56.7372 48.758L56.7596 48.9247C56.777 49.0516 56.7965 49.17 56.8162 49.2906L56.8243 49.343C56.8617 49.5797 56.8989 49.8166 56.9363 50.1072L56.9533 50.2402L56.8222 50.2709C55.8097 50.5084 54.7613 50.5516 53.7072 50.4016C49.5609 49.8116 46.5109 46.2066 46.6124 42.0166C46.6321 41.2078 46.7665 40.4195 47.0117 39.6699C46.7291 39.6414 46.4543 39.6131 46.1857 39.583C46.0932 39.8873 46.0166 40.1992 45.9567 40.5118C45.9447 40.5701 45.9334 40.6276 45.925 40.6845C45.91 40.7747 45.8951 40.8649 45.8834 40.9554C45.8711 41.0461 45.8594 41.1325 45.851 41.2191C45.8424 41.2822 45.8373 41.3397 45.8319 41.398L45.8241 41.4811C45.8154 41.5924 45.8094 41.7073 45.8037 41.8249C45.7977 41.9818 45.7951 42.1407 45.7951 42.2997C45.8235 45.4778 47.5754 48.4565 50.3668 50.0714L50.4833 50.139L50.4279 50.2614C50.3473 50.4394 50.2611 50.6025 50.1722 50.771C50.0743 50.9562 49.9821 51.1363 49.8842 51.3369L49.8145 51.4801L49.6755 51.4012C46.3585 49.5225 44.2982 46.0041 44.2982 42.219C44.2982 42.0583 44.3012 41.8975 44.3105 41.7401C44.3164 41.6049 44.3227 41.4677 44.338 41.3307C44.3371 41.2932 44.3437 41.2393 44.3503 41.1858C44.3557 41.1131 44.3649 41.0366 44.3742 40.9598C44.3832 40.8771 44.3955 40.7889 44.4075 40.7038C44.429 40.5523 44.4533 40.4005 44.4838 40.2489C44.5048 40.1355 44.5293 40.0173 44.5568 39.9018C44.5646 39.8584 44.5772 39.8078 44.5901 39.7572C44.6015 39.7012 44.617 39.6414 44.6329 39.5815L44.6664 39.4538C44.6712 39.4351 44.6763 39.416 44.6814 39.3976C44.4107 39.3621 44.1398 39.3252 43.8689 39.2865C43.7734 39.6434 43.6994 39.9822 43.6435 40.318C43.6261 40.4073 43.615 40.4957 43.6039 40.5812C43.5929 40.6472 43.5875 40.6919 43.5818 40.7395C43.5695 40.8139 43.5611 40.8815 43.5554 40.9515C43.5429 41.0402 43.5372 41.123 43.5315 41.2057C43.5219 41.27 43.5192 41.3215 43.5168 41.373C43.5075 41.4879 43.4989 41.6013 43.4959 41.7121C43.4926 41.7427 43.4929 41.7564 43.4929 41.7704C43.4869 41.9234 43.4839 42.0702 43.4839 42.2199C43.4839 43.9947 43.8856 45.6951 44.6775 47.2738L44.7437 47.4057L43.4114 48.0826L43.3438 47.9483C42.4433 46.1607 41.9867 44.2335 41.9867 42.2199C41.9867 41.997 41.993 41.7737 42.005 41.554C42.0077 41.4739 42.0134 41.3938 42.019 41.3117C42.0229 41.2343 42.0292 41.1694 42.0355 41.1045C42.0439 40.9807 42.0589 40.8524 42.0738 40.7246C42.0738 40.7115 42.0771 40.6883 42.0819 40.6648C42.0978 40.5216 42.1199 40.3719 42.1427 40.2198L42.1472 40.1891C42.1699 40.0397 42.1975 39.8932 42.2259 39.7444L42.2424 39.6711C42.2681 39.5285 42.3046 39.3654 42.3442 39.2052C42.3475 39.188 42.3531 39.1642 42.3627 39.1404C42.3681 39.1153 42.3747 39.0874 42.3816 39.0582C42.1095 39.0147 41.8409 38.9704 41.5769 38.9236C41.3104 40.001 41.1754 41.1096 41.1754 42.2205C41.1754 43.2282 41.2862 44.2287 41.5041 45.1944L41.5341 45.3263L41.4047 45.3686C41.0859 45.4725 40.797 45.5758 40.5168 45.6764L40.1132 45.8237L40.0746 45.6597C39.8118 44.541 39.6785 43.3839 39.6785 42.2202C39.6785 40.724 39.8953 39.2553 40.3228 37.8546L40.389 37.6329C39.892 37.5373 39.392 37.4355 38.8861 37.3277C38.4448 37.6141 38.005 37.9052 37.5691 38.197C37.5796 38.2491 37.5823 38.3036 37.573 38.3592C36.8402 40.9426 36.8791 43.7795 37.7509 46.4143C36.6941 44.0957 36.2785 41.4501 36.595 38.8483C36.4794 38.9254 36.3648 39.0028 36.2486 39.0799C36.0621 39.2011 35.8762 39.3202 35.6903 39.4407C35.7496 39.533 35.7765 39.6458 35.7558 39.7619C35.3164 40.7267 35.0954 41.8303 35.3277 42.9701C34.8891 42.0934 34.6958 41.0551 34.8056 40.0087C32.1642 41.6915 29.5271 43.2362 26.7099 44.299C25.8013 44.6404 24.8634 44.897 23.9048 45.1015C24.6856 45.3108 25.4595 45.5412 26.2217 45.799C30.2976 47.1773 32.8259 48.8069 35.2709 50.3825L35.2718 50.3813ZM86.3169 45.0048C82.163 43.9635 78.8933 41.88 75.0391 39.4142C74.4329 39.0263 73.8072 38.6277 73.1657 38.2238C73.6348 41.0232 73.2399 43.909 72.0984 46.4129C72.9621 43.7953 73.0133 40.9717 72.287 38.4051C72.2208 38.1717 72.3546 37.9302 72.5855 37.8582C72.3418 37.7046 72.1005 37.5558 71.858 37.4105C71.8122 37.3831 71.7691 37.3527 71.729 37.3197C71.6721 37.2858 71.614 37.2542 71.5568 37.2209C70.8671 37.3727 70.1689 37.5174 69.4654 37.6522L69.5178 37.8231C70.0231 39.4738 70.2369 41.1953 70.1527 42.94C69.9189 47.9457 67.1854 52.3223 63.207 54.908C65.2364 54.5978 67.247 54.1611 69.2301 53.6014C72.2708 52.2475 74.564 50.8413 75.6292 50.1444L76.0058 49.8955C77.3829 48.9834 79.9456 47.2851 83.665 45.8833C84.5344 45.5558 85.4196 45.2638 86.3169 45.0042V45.0048ZM64.0144 31.7291C64.185 31.7779 64.3572 31.8285 64.5299 31.8806C65.8852 32.2861 67.2494 32.7853 68.5813 33.3634C70.0806 34.0157 71.5535 34.7766 72.9597 35.6244C73.0043 35.6515 73.0468 35.6815 73.0863 35.7143C73.3537 35.8756 73.6186 36.0393 73.8815 36.2078C74.6679 36.699 75.4313 37.1875 76.1729 37.6617C79.4555 39.7616 82.2873 41.5734 85.6208 42.6349C83.6563 41.5171 81.7927 40.4142 80.0923 39.3618C75.7585 36.6948 71.4748 34.1642 66.7432 32.5281C66.3252 32.3849 65.8932 32.2486 65.4265 32.1119C64.961 31.9744 64.4901 31.8467 64.0144 31.7291ZM25.7978 42.4122C25.8549 42.3917 25.9118 42.3703 25.969 42.3491C29.1004 41.1673 32.0726 39.3056 35.0945 37.3402C35.4059 37.1333 35.7235 36.9202 36.0399 36.7079C36.707 36.2605 37.3964 35.7979 38.0871 35.3561C38.7253 34.9191 39.3813 34.5065 40.0516 34.1204C36.2845 35.747 32.739 38.0505 29.3043 40.2817C28.899 40.5448 28.4963 40.8065 28.096 41.0652C27.3671 41.5207 26.6049 41.9681 25.7978 42.4122ZM69.6806 27.5034C60.3548 22.9012 48.9744 22.9396 39.5609 27.29C36.4893 28.7127 33.5731 30.6664 30.6838 32.3956C26.2675 34.909 21.9247 37.4995 17.332 39.722C20.5818 38.6941 23.7461 37.3879 26.8426 35.9381C29.8097 34.3729 32.7813 32.5135 35.6463 30.7625C41.3116 27.1796 47.9224 25.1803 54.6449 25.2229C67.1788 25.291 72.2837 31.0456 82.6331 35.8113C85.8582 37.0193 89.1717 37.8963 92.5181 38.5349C86.0316 36.3897 80.051 33.4587 74.2054 29.9356C72.7304 29.0848 71.2332 28.2495 69.6806 27.5034ZM73.8126 54.4742C69.2726 56.9269 64.3587 58.7559 59.2417 59.5171C51.2431 60.6635 43.0474 58.3088 36.1959 54.2224C33.7126 52.6932 31.1892 51.0368 28.4754 49.8714C24.9598 48.3824 21.0874 47.7376 17.332 47.5426C22.275 48.4812 26.9339 50.231 31.2994 52.6324C34.1763 54.3075 36.9917 56.2857 40.0938 57.5961C47.2494 60.7846 54.8622 61.9763 62.5495 60.099C68.3376 58.7583 73.7785 56.1589 78.7104 52.9078C83.0079 50.3974 87.5841 48.4249 92.5178 47.4119C89.1609 47.6262 85.8154 48.355 82.6163 49.5424C79.4735 50.8112 76.7575 52.8596 73.812 54.4742H73.8126ZM13.3043 70.5875L12.0921 68.9237H11.203L12.9223 71.2424V73.7837H13.6863V71.2424L15.399 68.9237H14.5164L13.3043 70.5875ZM24.9685 70.4041C25.0936 70.7054 25.1595 71.0263 25.1595 71.3537C25.1595 71.6812 25.0936 72.0024 24.9685 72.2968C24.8433 72.5915 24.6721 72.8472 24.4482 73.0699C24.2177 73.2926 23.9608 73.4694 23.671 73.5941C23.368 73.7186 23.0453 73.784 22.716 73.784C22.3867 73.784 22.0637 73.7186 21.7676 73.5941C21.4712 73.4694 21.214 73.2926 20.9901 73.0699C20.7662 72.8472 20.5883 72.5918 20.4632 72.2968C20.3381 72.0024 20.2722 71.6812 20.2722 71.3537C20.2722 71.0263 20.3381 70.7051 20.4632 70.4041C20.5883 70.1156 20.7662 69.8605 20.9901 69.631C21.214 69.4083 21.4709 69.2381 21.7676 69.1136C22.064 68.9892 22.3867 68.9237 22.716 68.9237C23.0453 68.9237 23.368 68.9892 23.671 69.1136C23.9608 69.2381 24.2177 69.4083 24.4482 69.631C24.6721 69.8605 24.8433 70.1156 24.9685 70.4041ZM24.3955 71.354C24.3955 70.9087 24.2177 70.4895 23.9015 70.1749C23.5854 69.8605 23.1639 69.6837 22.716 69.6837C22.2681 69.6837 21.8463 69.8608 21.5302 70.1749C21.214 70.4895 21.0362 70.9087 21.0362 71.354C21.0362 71.7994 21.214 72.2185 21.5302 72.5332C21.8463 72.8475 22.2678 73.024 22.716 73.024C23.1642 73.024 23.5854 72.8472 23.9015 72.5332C24.2177 72.2185 24.3955 71.7994 24.3955 71.354ZM33.1815 71.9497H34.1036V72.8472H34.097C34.0114 72.8931 33.9192 72.9258 33.827 72.9523C33.827 72.9523 33.8204 72.9586 33.8138 72.9586C33.8072 72.9586 33.794 72.9586 33.7875 72.9651C33.7809 72.9651 33.7743 72.9651 33.7677 72.9714H33.7479C33.7413 72.9779 33.7282 72.9779 33.7216 72.9779C33.7172 72.9821 33.7128 72.9842 33.7084 72.9842C33.6623 72.9907 33.6096 73.0038 33.5635 73.0104H33.524C33.5174 73.0104 33.5108 73.0104 33.5108 73.0169H33.412C33.4055 73.0232 33.3989 73.0232 33.3923 73.0232H33.3462C32.8983 73.0232 32.4768 72.8463 32.1607 72.5323C31.9565 72.3289 31.8116 72.0801 31.7325 71.8053C31.6996 71.6874 31.6799 71.563 31.6733 71.4386C31.6667 71.4058 31.6667 71.3796 31.6667 71.3534C31.6667 71.3207 31.6667 71.2945 31.6733 71.2614V71.1897C31.6799 71.1239 31.693 71.0587 31.7062 70.9932C31.7062 70.9889 31.7084 70.9845 31.7128 70.9801C31.7523 70.803 31.8182 70.6393 31.917 70.4821C31.917 70.4758 31.9235 70.4627 31.9301 70.4559C31.9433 70.4365 31.9565 70.4166 31.9697 70.3969C31.9697 70.3969 31.9762 70.3907 31.9828 70.3839C32.0092 70.3446 32.0355 70.3053 32.0684 70.266C32.075 70.266 32.075 70.2594 32.075 70.2594C32.1014 70.227 32.1343 70.2005 32.1607 70.1743C32.2463 70.0826 32.3451 70.004 32.4504 69.9385C32.4636 69.9323 32.4768 69.9254 32.4834 69.9192C32.7402 69.762 33.0366 69.6831 33.3462 69.6831H33.4516C33.4581 69.6831 33.4647 69.6896 33.4713 69.6896H33.5306C33.5372 69.6959 33.5503 69.6959 33.5569 69.6959H33.5701C33.5767 69.6959 33.5899 69.7024 33.5965 69.7024H33.6096C33.636 69.709 33.6689 69.709 33.6952 69.7155C33.7018 69.7221 33.7084 69.7221 33.7084 69.7221C33.7216 69.7221 33.7282 69.7221 33.7348 69.7283H33.7545C33.7611 69.7349 33.7677 69.7349 33.7743 69.7349C33.8731 69.7611 33.9785 69.8004 34.0772 69.8462C34.1958 69.9052 34.3078 69.9707 34.4066 70.0558V69.1583H34.4C34.3868 69.1517 34.3736 69.1452 34.3605 69.1386C34.3539 69.1386 34.3539 69.1324 34.3539 69.1324C34.0904 69.0145 33.8138 68.949 33.5306 68.9291C33.5108 68.9228 33.4911 68.9228 33.4713 68.9228H33.3462C33.0169 68.9228 32.6941 68.9817 32.3978 69.1127C32.1014 69.2306 31.8445 69.4074 31.6206 69.6301C31.3967 69.8528 31.2188 70.1147 31.0937 70.4032C30.9817 70.6652 30.9224 70.9468 30.9027 71.2284V71.3528C30.9027 71.4314 30.9093 71.5166 30.9159 71.5951C30.9356 71.8372 31.0015 72.0729 31.0937 72.2959C31.2188 72.5906 31.3967 72.8463 31.6206 73.069C31.7787 73.2327 31.9631 73.3706 32.1607 73.475C32.2331 73.5209 32.3121 73.5602 32.3978 73.5929C32.4307 73.606 32.4636 73.6191 32.4966 73.6322C32.5229 73.6385 32.5427 73.6516 32.569 73.6584H32.5756C32.8193 73.7436 33.0827 73.7829 33.3462 73.7829H33.4713C33.7809 73.7632 34.0707 73.6977 34.3476 73.5733L34.3542 73.5667C34.3673 73.5605 34.3871 73.5536 34.4003 73.5474C34.4134 73.5408 34.4266 73.5343 34.4332 73.5277H34.4464C34.4508 73.5236 34.4552 73.5192 34.4595 73.5146C34.4727 73.5146 34.4859 73.5084 34.4925 73.5015C34.4991 73.4953 34.5057 73.4953 34.5122 73.4884C34.5254 73.4822 34.532 73.4822 34.5452 73.4753C34.5518 73.4688 34.5583 73.4688 34.5649 73.4622C34.5715 73.4557 34.5781 73.4557 34.5847 73.4491C34.5979 73.4426 34.6044 73.436 34.611 73.4295C34.6242 73.4295 34.6308 73.4232 34.6374 73.4164C34.644 73.4164 34.6505 73.4101 34.6571 73.4033C34.6637 73.4033 34.6769 73.397 34.6835 73.3902C34.6879 73.386 34.6923 73.3839 34.6967 73.3839L34.8679 73.2661V71.2617H33.1815V71.9497ZM40.7419 68.9237V73.7837H43.6731V73.0958H41.5059V71.5892H43.2911V70.9012H41.5059V69.6045H43.6731V68.9234L40.7419 68.9237ZM51.7939 71.4912C51.6882 71.393 51.5433 71.2555 51.4251 71.1376L50.6081 70.3583C50.4039 70.1618 50.3973 70.0111 50.4237 69.9195C50.4632 69.7816 50.6081 69.6703 50.7793 69.6378C50.9176 69.6116 51.1745 69.6117 51.4248 69.9129L52.0241 69.4348C51.8331 69.2056 51.6092 69.0419 51.3589 68.9436C51.1215 68.8585 50.8712 68.8389 50.6341 68.8913C50.4168 68.9305 50.2126 69.0288 50.048 69.1663C49.8698 69.3172 49.7447 69.5006 49.6857 69.7102C49.6264 69.9067 49.6327 70.1228 49.6989 70.3258C49.7648 70.5351 49.8899 70.7316 50.0743 70.9087L50.6737 71.4719C50.7 71.4984 51.0557 71.8455 51.2733 72.0485C51.4116 72.1795 51.5631 72.3763 51.4972 72.5989C51.438 72.7954 51.2335 72.9591 50.9832 73.005C50.8386 73.0374 50.6802 73.0243 50.5353 72.9657C50.3575 72.8999 50.1929 72.7692 50.0546 72.5858L49.4486 73.0574C49.6794 73.3521 49.9495 73.5551 50.259 73.6798C50.4434 73.7516 50.641 73.7846 50.8389 73.7846C50.9377 73.7846 51.0365 73.7781 51.135 73.7584C51.6688 73.6534 52.0969 73.2803 52.2352 72.8088C52.3014 72.5861 52.2945 72.3504 52.222 72.1277C52.1496 71.8982 52.0047 71.6821 51.7939 71.4921V71.4912ZM60.8105 71.0001H58.8606V68.9237H58.0963V73.7837H58.8606V71.6877H60.8105V73.7837H61.5748V68.9237H60.8105V71.0001ZM72.1457 72.1268L71.2763 70.0963L70.8479 69.1074L70.4527 70.1094L69.6426 72.1268L68.2658 68.9237H67.4228L69.6621 74.0002L70.8742 71.0721L72.1651 74.0002L74.2667 68.9237H73.43L72.1457 72.1268ZM80.6614 68.701L82.7824 73.7837H81.9457L81.5308 72.7424H79.7917L79.3765 73.7837H78.5334L80.6614 68.701ZM81.2544 72.061L80.6617 70.5806L80.0689 72.061H81.2544ZM90.5671 72.0286L91.8843 73.7837H91.0215L89.7896 72.1399H89.2298V73.7837H88.4655V68.9237H89.9147C90.5602 68.9237 90.9359 69.1857 91.1335 69.4083C91.3901 69.6899 91.5284 70.0832 91.5284 70.5348C91.5284 70.9804 91.3901 71.3731 91.1335 71.655C91.0149 71.786 90.8305 71.9366 90.5671 72.0286ZM89.9147 71.4585C90.2312 71.4585 90.4683 71.3668 90.6195 71.1965C90.8039 71.0001 90.8371 70.725 90.8371 70.5348C90.8371 70.3386 90.8042 70.0632 90.6195 69.8668C90.468 69.6965 90.2309 69.6116 89.9147 69.6116H89.2298V71.4585H89.9147ZM97.5545 73.784H98.3188V68.924H97.5545V73.784Z" fill="#9FFF82"/>
</g>
<defs>
<clipPath id="clip0_159_52">
<rect width="110" height="73.7" fill="white" transform="translate(0 0.300049)"/>
</clipPath>
</defs>
</svg>
